<svg xmlns="http://www.w3.org/2000/svg" viewBox="0 0 880 560" role="img" aria-labelledby="title desc">
  <title id="title">Grant report spread</title>
  <desc id="desc">Annual report style spread with grant categories and public ledger rows.</desc>
  <rect width="880" height="560" fill="#eadfc9"/>
  <rect x="86" y="70" width="336" height="420" rx="10" fill="#fffdf7" stroke="#cdbb94" stroke-width="4"/>
  <rect x="458" y="70" width="336" height="420" rx="10" fill="#fffdf7" stroke="#cdbb94" stroke-width="4"/>
  <rect x="120" y="112" width="178" height="24" fill="#203a72"/><rect x="120" y="166" width="250" height="12" fill="#657083" opacity=".45"/><rect x="120" y="194" width="224" height="12" fill="#657083" opacity=".45"/><rect x="120" y="222" width="260" height="12" fill="#657083" opacity=".45"/>
  <rect x="120" y="294" width="82" height="82" fill="#203a72" opacity=".9"/><rect x="218" y="294" width="82" height="82" fill="#9f5745" opacity=".9"/><rect x="316" y="294" width="82" height="82" fill="#b5852f" opacity=".9"/>
  <rect x="492" y="114" width="248" height="18" fill="#9f5745"/><g fill="#657083" opacity=".52"><rect x="492" y="170" width="230" height="14"/><rect x="492" y="212" width="200" height="14"/><rect x="492" y="254" width="244" height="14"/><rect x="492" y="296" width="212" height="14"/></g>
  <g stroke="#203a72" stroke-width="3"><line x1="492" y1="160" x2="746" y2="160"/><line x1="492" y1="202" x2="746" y2="202"/><line x1="492" y1="244" x2="746" y2="244"/><line x1="492" y1="286" x2="746" y2="286"/><line x1="492" y1="328" x2="746" y2="328"/></g>
  <circle cx="646" cy="404" r="52" fill="none" stroke="#b5852f" stroke-width="9"/><text x="646" y="410" text-anchor="middle" font-family="Georgia,serif" font-size="26" fill="#b5852f">2026</text>
  <text x="254" y="444" text-anchor="middle" font-family="Arial,sans-serif" font-size="19" fill="#657083" font-weight="700">focus categories</text><text x="626" y="444" text-anchor="middle" font-family="Arial,sans-serif" font-size="19" fill="#657083" font-weight="700">public ledger rows</text>
</svg>
