<svg xmlns="http://www.w3.org/2000/svg" viewBox="0 0 960 560" role="img" aria-labelledby="title desc">
  <title id="title">ClearPath commute route map</title>
  <desc id="desc">A light civic transit map with relief, constrained, hot, and stable route labels.</desc>
  <rect width="960" height="560" rx="36" fill="#f8fbf7"/>
  <g stroke="#cfe5df" stroke-width="2" fill="none" opacity="0.85">
    <path d="M72 82 C230 172 330 72 492 172 S735 234 888 108"/>
    <path d="M92 454 C220 348 330 418 468 320 S726 260 876 374"/>
    <path d="M152 118 C236 238 226 360 320 470"/>
    <path d="M610 70 C556 178 610 326 742 486"/>
    <path d="M72 278 H890"/>
  </g>
  <g fill="none" stroke-linecap="round" stroke-linejoin="round">
    <path d="M112 406 C230 336 300 316 416 286 C548 250 655 224 818 154" stroke="#2aa7b8" stroke-width="14"/>
    <path d="M160 152 C260 184 356 206 464 244 C560 278 640 306 764 336" stroke="#d89a22" stroke-width="12" stroke-dasharray="18 16"/>
    <path d="M286 458 C356 388 438 348 526 334 C634 317 704 350 806 422" stroke="#4f9f68" stroke-width="10"/>
    <path d="M620 114 C656 186 674 244 682 312" stroke="#c94e45" stroke-width="12"/>
  </g>
  <g font-family="Inter, Arial, sans-serif" font-size="22" font-weight="800" fill="#17313a">
    <g><circle cx="112" cy="406" r="18" fill="#fff" stroke="#2aa7b8" stroke-width="7"/><text x="52" y="448">West lot</text></g>
    <g><circle cx="416" cy="286" r="18" fill="#fff" stroke="#2aa7b8" stroke-width="7"/><text x="346" y="258">River hub</text></g>
    <g><circle cx="818" cy="154" r="18" fill="#fff" stroke="#2aa7b8" stroke-width="7"/><text x="735" y="126">Relief route</text></g>
    <g><circle cx="160" cy="152" r="16" fill="#fff" stroke="#d89a22" stroke-width="6"/><text x="94" y="128">North garage</text></g>
    <g><circle cx="764" cy="336" r="16" fill="#fff" stroke="#d89a22" stroke-width="6"/><text x="708" y="378">Constrained</text></g>
    <g><circle cx="682" cy="312" r="24" fill="#fff" stroke="#c94e45" stroke-width="8"/><circle cx="682" cy="312" r="38" fill="none" stroke="#c94e45" stroke-width="3" opacity=".35"/><text x="612" y="292">Hot node</text></g>
    <g><circle cx="526" cy="334" r="15" fill="#fff" stroke="#4f9f68" stroke-width="6"/><text x="456" y="384">Stable corridor</text></g>
  </g>
  <g transform="translate(66 46)" font-family="Inter, Arial, sans-serif">
    <text x="0" y="0" fill="#17313a" font-size="24" font-weight="900">Morning route status</text>
    <text x="0" y="28" fill="#5f7480" font-size="15">Static sample map · action threshold 80%</text>
  </g>
  <g transform="translate(620 458)" font-family="Inter, Arial, sans-serif" font-size="15" fill="#17313a">
    <rect width="256" height="58" rx="18" fill="#ffffff" stroke="#c9ddd8"/>
    <circle cx="26" cy="29" r="7" fill="#2aa7b8"/><text x="42" y="34">Relief</text>
    <circle cx="102" cy="29" r="7" fill="#d89a22"/><text x="118" y="34">Constrained</text>
    <circle cx="210" cy="29" r="7" fill="#c94e45"/><text x="226" y="34">Hot</text>
  </g>
</svg>
