<?xml version="1.0" encoding="UTF-8"?>
<svg id="Layer_1" xmlns="http://www.w3.org/2000/svg" version="1.1" viewBox="0 0 1200 1200">
  <!-- Generator: Adobe Illustrator 30.1.0, SVG Export Plug-In . SVG Version: 2.1.1 Build 136)  -->
  <defs>
    <style>
      .st0 {
        fill: #b8eeff;
      }

      .st0, .st1, .st2 {
        stroke: #000;
        stroke-miterlimit: 10;
        stroke-width: 7px;
      }

      .st1 {
        fill: #f6ff22;
      }

      .st2 {
        fill: #fff;
      }
    </style>
  </defs>
  <g id="Graphic_Element">
    <rect class="st0" x="77.67" y="99.63" width="1044.66" height="748.58" rx="58" ry="58"/>
  </g>
  <rect class="st2" x="731.88" y="354.59" width="309.78" height="353.05" rx="21" ry="21"/>
  <polygon class="st1" points="946.4 484.33 897.72 495.01 870.26 452.53 859.95 506.1 812.48 518.43 860.47 546.21 852.74 596.58 895.1 557.18 949.88 571.58 921.59 531.12 946.4 484.33"/>
  <polygon class="st2" points="259.27 634.32 191.18 604.3 141.59 659.78 159.32 690.23 179.03 724.08 251.76 708.35 259.27 634.32"/>
  <polygon class="st2" points="173.81 338.13 165.75 452.53 268.85 402.3 173.81 338.13"/>
  <rect class="st2" x="107.96" y="145.3" width="984.08" height="40" rx="20" ry="20"/>
  <rect class="st2" x="306.25" y="644.19" width="370.83" height="40" rx="20" ry="20"/>
  <rect class="st2" x="306.25" y="375.33" width="370.83" height="40" rx="20" ry="20"/>
</svg>
