<?xml version="1.0" encoding="UTF-8"?>
<svg id="Layer_1" xmlns="http://www.w3.org/2000/svg" version="1.1" viewBox="0 0 1200 1200">
  <!-- Generator: Adobe Illustrator 30.1.0, SVG Export Plug-In . SVG Version: 2.1.1 Build 136)  -->
  <defs>
    <style>
      .st0 {
        stroke-width: 34px;
      }

      .st0, .st1, .st2, .st3, .st4, .st5, .st6 {
        stroke-miterlimit: 10;
      }

      .st0, .st2 {
        stroke: #fff;
      }

      .st0, .st5, .st6 {
        fill: none;
      }

      .st1, .st7, .st2 {
        fill: #fff;
      }

      .st1, .st3, .st4, .st5, .st6 {
        stroke: #000;
      }

      .st1, .st4 {
        stroke-width: 7px;
      }

      .st3, .st6 {
        stroke-width: 3px;
      }

      .st8 {
        fill: #222221;
      }

      .st4 {
        fill: #ff001f;
        opacity: .77;
      }

      .st5 {
        stroke-width: 4px;
      }
    </style>
  </defs>
  <g id="Graphic_Element">
    <rect class="st4" x="67.63" y="291.94" width="1064.74" height="652.81" rx="58" ry="58"/>
    <polygon class="st1" points="1031.08 528.48 948.58 554.42 893.6 502.08 892.17 595.74 816.07 633.24 910.68 656.17 938.19 749.84 977.34 676.83 1064.17 664.5 1008.65 611.63 1031.08 528.48"/>
    <path class="st0" d="M860.54,305.91c-2.22,32.84-2.3,65.15-9.57,96.64-6.16,26.66-8.96,54.05-12.8,81.35-3.79,26.96-6.96,54.03-10.91,80.96-.2,1.37-.41,2.75-.61,4.14"/>
    <path class="st0" d="M352.09,652.69c-2.21,30.4,14.35,63.96,14.35,95.75,0,25.41,14.29,53.01,10.46,78.28-3.78,24.95,11.37,38.68,7.43,63.6-.2,1.27,1.74-33.35,1.52-32.08"/>
    <g>
      <path class="st7" d="M559,787.89c-4.69-12.63-13.57-4.25-13.57-4.25,0,0-6.21-18.01-25-34.76-18.79-16.75-71.93-27.86-71.93-27.86,0,0-37.69-68.13-45.3-72.31-7.61-4.17-17.52,9.35-22.85,23.26-5.33,13.91,4.63,56.92,4.63,56.92l14.16,32.45-46.21,90.86s-1.51,45.91-7.4,43.85c-5.9-2.05-6.84-38.6-9.07-45.11-2.23-6.49,17.76-49.06,15.95-55.56-1.8-6.49-1.49-34.27-15.57-71.05-14.08-36.78-36.8-25.32-36.8-25.32l-23.21,130.25s-19.92,82.28-25.38,86.89c-3.89,3.29-31.93,116.73-47.78,181.86.31-.69.6-1.38.86-2.1,1.44-4,5.29-6.68,9.65-5.47,3.86,1.05,6.92,5.66,5.47,9.65-2.35,6.49-7.23,12.2-8.2,19.12-.33,2.42-2.24,4.19-4.5,5.07v28.36c0,1.05-.17,1.99-.49,2.82,77,62.85,194.25,30.84,194.27,30.84l10.6-20.7c.58-22.08,4.02-48.04,19.28-64.26,4.31-4.6,10.23-2.01,12.42,2.35l49.97-97.62s17.1-41.16,45.42-104.32c28.33-63.16,25.27-101.29,20.58-113.92l-.02.05Z"/>
      <polygon class="st7" points="339.09 644.19 333.89 619.28 350.49 624.03 361.72 650.38 344.01 652.37 339.09 644.19"/>
      <path class="st8" d="M270.21,869.1c2.48-12.69,3.97-25.57,6.67-38.22,1.35-6.32,2.84-12.63,3.8-19.01.96-6.34,1.44-12.75,1.94-19.14.52-6.49.99-12.99,1.73-19.45.72-6.38,1.85-12.7,3.04-19.01,2.38-12.53,5.07-25,6.54-37.67.49-4.16.3-8.89,2.13-12.74,1.87-3.89,6.2-5.19,10.27-5.07,4.45.13,8.89,1.79,12.5,4.34,1.85,1.3,3.39,3.06,4.85,4.77,1.66,1.94,3.15,4.03,4.56,6.18,2.96,4.56,5.46,9.43,7.67,14.38,2.26,5.08,4.39,10.2,5.05,15.76.36,3.04.52,6.1.88,9.16.38,3.17,1,6.29,1.58,9.41.56,2.98,1.08,5.98,1.3,9,.22,3.15.08,6.32.08,9.47,0,6.42.06,12.81-.33,19.21-.36,6.18-1.21,12.36-2.09,18.48-.86,6.09-3.06,11.84-4.41,17.82-.69,3.06-1.47,6.07-2.42,9.08-.82,2.62-1.51,5.27-2.46,7.84-.88,2.35-1.8,4.91-1.51,7.47.14,1.22.94,2.27,2.27,2.27,1.11,0,2.42-1.05,2.27-2.27-.31-2.57.91-5.07,1.77-7.42.99-2.71,1.69-5.55,2.54-8.31.96-3.14,1.63-6.32,2.37-9.5.71-3.03,1.68-5.96,2.54-8.94,1.73-5.99,2.12-12.42,2.9-18.6.85-6.57,1.02-13.21,1.05-19.84v-9.76c0-3.28.05-6.52-.35-9.77-.75-6.24-2.35-12.33-2.92-18.59-.3-3.25-.52-6.51-1.1-9.72-.52-2.89-1.46-5.6-2.56-8.31-2.09-5.22-4.39-10.38-7.12-15.31-2.71-4.89-5.85-9.61-9.63-13.76-3.36-3.67-7.39-6.31-12.12-7.84-4.55-1.47-9.85-1.91-14.38-.13-2.4.94-4.49,2.34-6.01,4.44-1.33,1.82-2.1,4.03-2.56,6.21-.49,2.35-.67,4.75-.88,7.14-.25,2.82-.61,5.65-1.02,8.47-.93,6.49-2.13,12.94-3.39,19.39s-2.56,12.89-3.69,19.35c-1.16,6.62-1.98,13.27-2.57,19.95-1.18,13.05-1.71,26.13-4.36,38.99-1.33,6.48-2.84,12.91-4,19.43-1.14,6.51-2.1,13.07-3.18,19.59-.53,3.18-1.08,6.37-1.71,9.55-.24,1.21.35,2.45,1.58,2.79,1.11.31,2.56-.38,2.79-1.58h.05Z"/>
      <path class="st8" d="M364.4,856.79c-.13-7.62-.91-15.2-1.84-22.76-.93-7.58-1.71-15.15-2.31-22.76-.58-7.61-1.33-15.14-2.65-22.65-1.3-7.5-2.53-14.96-3.65-22.49-1.13-7.5-2.43-14.95-3.95-22.37-1.49-7.29-1.4-14.76-2.38-22.12-.52-3.76-1.52-7.37-2.4-11.07-.85-3.61-1.55-7.25-2.2-10.89-.66-3.72-1.24-7.43-1.87-11.15-.3-1.8-.72-3.62-.85-5.46-.13-1.87-.02-3.75-.05-5.62-.03-1.91-.28-3.8-.69-5.68-.33-1.49-.72-2.96-.83-4.49-.16-2.48-.42-4.97-.45-7.45,0-1.21,0-2.21.38-3.29.06-.19.09-.31.42-.58-.25.2.2-.13.28-.17.25-.14.38-.2.47-.25,2.16-.89,4.63-.96,6.92-1.35,3.17-.53,6.1-2.02,9.24-2.74,1.14-.27,2.32-.42,3.5-.3-.31-.03.22.05.31.06.25.06.49.13.74.22s-.02,0-.06-.03c.09.05.19.08.27.14.2.13.41.24.6.38-.35-.25.6.63.52.53-.11-.14.19.28.25.38.14.22.27.44.38.66.28.53.25.49.42.97.2.56.38,1.14.53,1.74.8,3.06,1.24,6.2,2.01,9.27,1.76,6.98,4.14,13.8,5.6,20.86,1.57,7.53,2.53,15.23,3.8,22.81,2.56,15.21,5.24,30.41,7.87,45.61,1.3,7.51,2.93,15.04,3.83,22.62.45,3.81.39,7.58.52,11.4.13,3.62.8,7.18,1.24,10.79.44,3.65.25,7.26.3,10.93.05,3.76.86,7.39,1.69,11.03.41,1.79.82,3.58,1.07,5.4.24,1.74.17,3.47.09,5.22-.08,1.79-.13,3.54.16,5.32.25,1.54,1.02,2.9,1.44,4.39.38,1.32.06,2.65.05,4,0,1.84.6,3.39,1.79,4.78s3.26.47,3.8-1c.13-.35.25-.69.38-1.05.41-1.16-.47-2.48-1.58-2.79-1.25-.35-2.38.42-2.79,1.58-.13.35-.25.69-.38,1.05,1.27-.33,2.53-.67,3.8-1-.8-.94-.39-2.46-.33-3.59.09-1.71-.3-3.28-.93-4.85-.61-1.54-.93-2.9-.93-4.56,0-1.8.19-3.59.14-5.4-.11-3.8-1.14-7.51-1.96-11.18-.78-3.58-1-7-.93-10.65.08-3.84-.3-7.59-.85-11.4-.25-1.77-.5-3.53-.63-5.3-.16-1.96-.08-3.91-.11-5.87-.13-7.81-1.77-15.5-3.14-23.15-2.78-15.47-5.41-30.96-8.05-46.46-1.33-7.83-2.64-15.65-3.89-23.5-.58-3.67-1.24-7.29-2.15-10.9-.93-3.59-1.99-7.14-3.01-10.7-1-3.48-1.94-7-2.65-10.56-.52-2.6-.94-5.21-2.05-7.64-.94-2.05-2.49-3.7-4.61-4.53-2.42-.96-5.19-.61-7.64,0-3.14.78-6.1,2.23-9.3,2.71-2.49.38-5.02.6-7.34,1.65-5.3,2.4-3.92,9.22-3.61,13.88.09,1.51.16,3.01.41,4.5.28,1.62.77,3.18,1,4.8.28,1.88.17,3.83.17,5.74s.14,3.86.47,5.79c1.32,7.51,2.4,15.06,4,22.51.8,3.76,1.96,7.45,2.64,11.23.64,3.59.89,7.25,1.16,10.89.28,3.84.58,7.7,1.19,11.51.63,3.83,1.49,7.62,2.18,11.43,1.38,7.59,2.38,15.23,3.59,22.85,1.18,7.5,2.81,14.92,3.72,22.44.93,7.7,1.22,15.47,1.99,23.18.75,7.69,1.91,15.31,2.59,22.99.33,3.81.55,7.62.61,11.45.05,2.92,4.58,2.92,4.53,0h0l-.02.03Z"/>
      <path class="st8" d="M499.49,804.41c-.91-4.61-2.62-9.08-4.71-13.28-2.09-4.17-4.91-7.83-7.21-11.86-1.24-2.16-2.34-4.39-3.67-6.51-1.41-2.24-3.11-4.3-4.67-6.42-3.09-4.16-6.18-8.23-8.78-12.72-2.43-4.19-5.55-7.65-8.58-11.4-3.18-3.97-5.52-8.61-8.31-12.85-1.47-2.24-2.98-4.45-4.49-6.68-1.25-1.87-2.59-3.7-3.48-5.77-.82-1.85-1.38-3.78-2.56-5.44-1.11-1.57-2.49-2.92-3.59-4.5-2.56-3.69-4.14-7.95-5.72-12.11-1.73-4.5-3.81-8.66-6.31-12.78-2.62-4.33-4.93-8.81-7.21-13.32-1.05-2.07-2.42-4.13-3.2-6.32-.74-2.09-1.19-4.25-2.04-6.29-3.01-7.23-12.88-12.42-20.12-8.08-1.85,1.11-3.45,2.78-4.99,4.28-1.46,1.44-2.85,2.96-4.14,4.58-2.73,3.43-4.89,7.14-6.48,11.23-1.79,4.63-2.37,9.44-2.37,14.38s.09,10.21.19,15.29c.09,5.25.55,10.48,1.74,15.61,1.14,4.94,2.15,10.15,4.47,14.7,1.02,1.98,2.18,3.91,2.96,5.99.89,2.34,1.49,4.77,2.34,7.12,1.65,4.58,4.86,8.42,6.26,13.1.69,2.29,1.38,4.42,2.54,6.52,1.24,2.26,2.57,4.45,3.92,6.65,2.67,4.34,5.43,8.64,7.78,13.18,2.23,4.27,3.34,8.91,4.94,13.43,1.69,4.78,4.44,8.88,6.81,13.32,2.2,4.09,3.45,8.2,3.47,12.88,0,4.55-.77,9.07-1.82,13.47-.52,2.13-1.08,4.25-1.74,6.34-.67,2.12-1.9,3.97-3.04,5.87-1.25,2.12-2.27,4.36-2.98,6.73-.69,2.29-1.13,4.64-1.77,6.95-1.43,5.11-3.51,10.04-5.27,15.03-1.71,4.88-3.81,9.6-5.76,14.38-.36.88-.69,1.74-1.02,2.62,1.46,1.47,2.4,3.51,2.4,5.58v1.08c.86-2.13,1.51-4.38,2.35-6.49,1.88-4.72,3.97-9.36,5.74-14.12,1.82-4.88,3.72-9.79,5.3-14.76,1.44-4.52,1.94-9.4,4.27-13.6,1.05-1.91,2.32-3.7,3.22-5.69.91-2.01,1.47-4.14,2.04-6.26,1.21-4.49,2.12-9.07,2.48-13.71.35-4.41.09-8.97-1.44-13.14-1.74-4.71-4.6-8.77-6.92-13.16-2.2-4.17-3.22-8.81-4.8-13.22-1.68-4.67-4.19-8.97-6.74-13.19-2.64-4.34-5.41-8.61-7.83-13.08-1.04-1.9-1.41-3.98-2.12-6.01-.8-2.27-2.01-4.41-3.2-6.49-1.19-2.12-2.29-4.17-3.06-6.49-.78-2.38-1.44-4.8-2.4-7.12-.89-2.12-2.04-4.11-3.07-6.15-1.07-2.1-1.62-4.3-2.21-6.57-1.27-4.94-2.59-9.87-3.01-14.96s-.25-10.23-.36-15.34c-.11-4.94-.47-10.01.66-14.85.94-4.08,2.71-7.94,5.03-11.42,2.26-3.39,5.1-6.35,8.11-9.08,1.3-1.18,2.6-2.13,4.39-2.35,1.65-.2,3.37.16,4.89.8,3.54,1.52,5.77,4.34,6.87,7.97.64,2.1,1.18,4.23,2.18,6.21,1.19,2.34,2.45,4.61,3.62,6.95,2.21,4.39,4.61,8.64,7.14,12.86,2.34,3.91,4.05,7.91,5.68,12.14,1.62,4.17,3.31,8.44,6.02,12.03,1.11,1.47,2.49,2.79,3.45,4.38,1.02,1.68,1.54,3.62,2.4,5.4,1.02,2.12,2.45,4.03,3.76,5.98,1.49,2.23,3,4.44,4.47,6.68,2.74,4.19,5.08,8.66,8.19,12.58,1.43,1.8,2.96,3.51,4.44,5.3s2.67,3.73,3.83,5.74c2.59,4.49,5.72,8.56,8.81,12.72,1.52,2.05,3.17,4.05,4.53,6.21,1.29,2.04,2.35,4.2,3.54,6.31,2.31,4.03,5.14,7.69,7.23,11.86,3.94,7.83,6.62,17.3,3.81,25.91-.77,2.37-1.76,4.67-2.46,7.06-.71,2.4-1.22,4.86-2.01,7.23-.8,2.42-2.02,4.66-3.09,6.96-1.13,2.43-2.21,4.88-3.29,7.32-2.12,4.77-4.34,9.47-6.54,14.19-2.2,4.74-4.39,9.47-6.92,14.04-2.48,4.49-5.24,8.81-7.86,13.22-2.43,4.11-5.69,7.78-7.75,12.11-.82,1.73-1.22,3.45-2.16,5.07-1.29-1.07-3.8-.52-3.78,1.66,0,1.73-.02,3.43-.11,5.16-.06,1.11.91,2.1,1.96,2.23,1.19.14,2.05-.55,2.49-1.63.8-1.98,2.38-3.51,3.51-5.3,1.25-1.96,1.6-4.3,2.74-6.32,2.42-4.28,5.47-8.17,7.98-12.39,2.64-4.42,5.41-8.77,7.81-13.32,2.53-4.77,4.74-9.68,7.03-14.57,2.24-4.78,4.44-9.58,6.59-14.41,2.16-4.85,4.83-9.57,6.27-14.7.69-2.43,1.22-4.89,2.04-7.28.78-2.31,1.76-4.55,2.37-6.9,1.19-4.64.96-9.54.03-14.19l.06.05Z"/>
      <path class="st8" d="M453.93,731.69c4.78,0,9.57-.11,14.35-.11s9.1.17,13.65,1.11c4.28.89,8.67,1.76,12.83,3.11,3.92,1.27,7.64,3,11.36,4.75,6.6,3.11,13.49,5.82,19.31,10.34,2.73,2.12,5.21,4.63,7.04,7.56,1.93,3.09,3.01,6.57,3.69,10.13,1.49,7.87.94,16.01.63,23.97-.16,3.98-.11,7.95-.94,11.87-.83,3.92-2.21,7.7-3.8,11.37-1.63,3.73-3.43,7.39-5.08,11.12-.91,2.05-1.54,4.11-2.07,6.27-.52,2.05-1.19,3.87-2.35,5.66-1.13,1.73-2.32,3.37-3.33,5.18-1.08,1.96-2.05,3.98-3,6.02-1.9,4.14-3.72,8.3-5.76,12.38-4.27,8.52-8.6,16.97-12.92,25.46-.97,1.91-1.91,3.78-3.2,5.52-1.14,1.55-2.37,3.06-3.17,4.82-1.14,2.51-1.55,5.52-2.57,7.92-.27.61-.58,1.25-1,1.77.19-.24-.36.33-.42.38.28-.22-.35.16-.45.2,1.11.45,2.23.91,3.33,1.35-.09-.33-.19-.66-.28-1-.8-2.81-5.18-1.62-4.38,1.21.09.33.19.66.28,1,.44,1.52,2.01,1.94,3.33,1.35,2.89-1.3,4.02-4.91,4.83-7.7.38-1.32.67-2.7,1.16-3.98.63-1.65,1.84-3.15,2.92-4.6,2.73-3.62,4.52-7.92,6.57-11.95,2.21-4.34,4.42-8.67,6.62-13.02,2.18-4.33,4.42-8.63,6.42-13.05,1.9-4.22,3.69-8.5,5.98-12.53,1.04-1.82,2.35-3.47,3.42-5.27,1.18-1.96,1.85-4.11,2.38-6.32,1.04-4.2,2.96-7.98,4.78-11.89,3.61-7.81,6.81-15.78,7.03-24.48.2-8.25.91-16.56.13-24.8-.39-4.05-1.08-8.11-2.56-11.92-1.4-3.61-3.48-6.82-6.15-9.65-5.07-5.35-11.7-8.99-18.37-11.95-3.97-1.76-7.84-3.72-11.84-5.43-4.09-1.76-8.2-3.07-12.55-4.05-4.64-1.04-9.27-2.26-14.04-2.64-4.86-.38-9.8-.16-14.68-.11-2.38.03-4.78.05-7.17.05-2.92,0-2.93,4.53,0,4.53h0l.06.05Z"/>
      <path class="st8" d="M564.74,785.82c-3.48-4.94-9.65-6.01-14.34-9.4-2.35-1.69-4.75-3.37-7.67-3.8-2.67-.39-3.81,3.75-1.13,4.13,2.96.42,5.21,2.37,7.59,4.05s5.03,2.62,7.62,3.89c6.02,2.96,7.17,9.02,7.11,15.26-.03,3.28-.3,6.54-.49,9.82-.17,3.25-.05,6.51-.33,9.76-.58,6.78-2.62,13.32-4.47,19.81-3.98,13.9-7.06,28.01-12.12,41.58-2.49,6.68-5.27,13.24-7.92,19.86-2.64,6.57-4.89,13.3-7.91,19.72-2.92,6.18-6.16,12.19-8.97,18.43-2.95,6.56-5.66,13.21-8.55,19.79-2.9,6.59-5.93,13.13-9.35,19.45-3.36,6.21-7.12,12.19-10.85,18.16-3.73,5.98-7.47,11.95-10.76,18.19-3.43,6.46-6.6,13.07-10.09,19.51-6.9,12.83-13.77,25.57-19.98,38.77-3.09,6.57-6.05,13.21-9.57,19.54-1.33,2.4-2.71,4.77-4.11,7.14,1.33.52,2.53,1.41,3.47,2.54.27-.45.53-.93.8-1.4,3.76-6.43,7.12-13,10.29-19.75,3.15-6.68,6.26-13.39,9.55-20.01,3.34-6.7,6.98-13.24,10.56-19.81,6.98-12.8,13.21-25.97,20.88-38.38,3.78-6.1,7.65-12.14,11.23-18.37,3.62-6.32,6.82-12.86,9.82-19.5,3.18-7.06,6.15-14.19,9.24-21.3,2.45-5.65,5.19-11.14,7.98-16.63,3.42-6.73,5.99-13.68,8.7-20.67,2.62-6.76,5.47-13.41,8.11-20.17,5.41-13.88,8.85-28.25,12.81-42.57,1.84-6.62,4-13.18,5-20,.96-6.43.82-13.08,1.14-19.57.31-6.18.41-12.81-3.29-18.07l-.02-.02Z"/>
      <path class="st8" d="M369.64,900.13c-2.67-.67-5.32-1.47-7.87-2.51-3.72-1.51-7.34-3.51-10.51-5.98-3.12-2.43-5.49-5.43-7.34-8.91-2.12-3.97-3.56-8.22-5.36-12.31-1.88-4.25-4.06-8.55-3.87-13.33h0c-.08-2.92-4.42-2.92-4.53,0v.49c.02,1.19.03,2.4.03,3.59,0,.66.24,1.16.6,1.52.66,2.7,1.76,5.3,2.9,7.86,1.77,3.97,3.26,8.05,5.1,11.98,1.8,3.87,4.09,7.62,7.23,10.56,3.26,3.06,7.17,5.49,11.18,7.4,3.72,1.76,7.58,3.03,11.51,4.03-.08-1.55.22-3.11.94-4.42v.03Z"/>
      <path class="st8" d="M266.92,862.05c-2.04,9.57-4.52,19.04-7.34,28.42-2.82,9.35-6.16,18.52-8.85,27.92-5.43,19.07-10.05,38.38-15.48,57.45-1.36,4.82-3,9.57-3.87,14.51-.85,4.8-1.76,9.58-2.71,14.37-1.88,9.49-3.94,18.95-6.09,28.37-4.33,19.1-9.02,38.11-13.39,57.2,1-.14,2.05-.09,3.15.2.49.14.96.33,1.41.56,1.65-7.03,3.18-14.08,4.83-21.1,2.24-9.49,4.52-18.96,6.71-28.47s4.33-19.04,6.32-28.59c.99-4.75,1.93-9.52,2.84-14.29.45-2.45.91-4.89,1.35-7.34.42-2.4,1.04-4.67,1.74-7.01,5.63-18.98,10.27-38.22,15.53-57.31,1.35-4.93,2.64-9.9,4.2-14.76,1.49-4.6,3.12-9.14,4.6-13.74,2.93-9.21,5.58-18.51,7.81-27.92.56-2.42,1.11-4.85,1.63-7.28.61-2.85-3.76-4.06-4.38-1.21h-.02Z"/>
      <path class="st8" d="M362.38,849.47c0,7.53-.05,15.07.49,22.6.27,3.72.69,7.42,1.29,11.1.28,1.73.67,3.42.83,5.16.16,1.71.2,3.43.27,5.16.16,3.76,1.88,7.39,1.51,11.15h4.53v-1c0-2.92-4.52-2.92-4.53,0v1c0,1.22,1.05,2.27,2.27,2.27,1.33,0,2.15-1.05,2.27-2.27.35-3.39-1.02-6.45-1.41-9.74-.2-1.73-.14-3.48-.25-5.21-.11-1.8-.36-3.59-.69-5.36-1.36-7.23-1.8-14.59-1.96-21.94-.08-4.3-.08-8.6-.08-12.89,0-2.92-4.53-2.92-4.53,0h0v-.03Z"/>
      <path class="st8" d="M393.12,834.83c.85,8.16,2.16,16.23,3.47,24.33.64,4,1.29,8.01,1.87,12.03.28,1.93.49,3.87.8,5.8.3,1.85.71,3.67.96,5.54.27,2.05.22,4.13.2,6.2v7.15c0,2.92,4.53,2.92,4.53,0v-3.94c0-2.92-4.53-2.92-4.53,0v3.94h4.53c0-4.02.25-8.14-.09-12.16-.33-3.81-1.21-7.56-1.73-11.34-1.08-8.05-2.51-16.05-3.73-24.08-.69-4.47-1.3-8.96-1.77-13.46-.13-1.22-.96-2.27-2.27-2.27-1.13,0-2.4,1.04-2.27,2.27h0l.05-.02Z"/>
      <path class="st8" d="M363.98,650.38c-.06-2.96-.25-5.98-1.35-8.77-1.24-3.12-3.23-5.88-4.6-8.94-1.33-2.96-2.23-6.07-3.48-9.05-1.24-2.93-3.11-5.66-6.45-6.24-2.85-.49-5.74.13-8.61-.09-2.51-.19-5.19-.44-7.26,1.29-2.49,2.09-2.53,6.05-2.15,9,.45,3.51,1.68,6.87,2.13,10.38.55,4.27.52,8.6,1.25,12.83.31,1.79.97,3.54,1.11,5.36.16,2.07-.33,4.11.39,6.12.61,1.69,2.43,2.12,3.8,1,1.25-1.02,1.82-2.53,1.8-4.13-.05-2.92-4.6-2.93-4.53,0,0,.53,0,.52-.47.91,1.27.33,2.53.67,3.8,1-.53-1.46-.16-2.98-.2-4.5-.06-1.65-.44-3.25-.83-4.83-.77-3.18-.96-6.42-1.19-9.68-.24-3.37-.66-6.7-1.47-9.99-.69-2.76-1.65-5.79-1.05-8.64.11-.56.25-.97.55-1.43-.17.25.36-.17.03,0,.02,0,.66-.3.27-.16.42-.16.6-.16.82-.17.61-.03,1.24,0,1.85.03,1.04.06,2.05.19,3.09.19,1.4,0,2.78-.17,4.17-.19.96-.02,2.04-.05,2.89.47.97.58,1.54,1.82,1.99,2.81,1.14,2.51,1.88,5.22,2.93,7.78.69,1.66,1.41,3.31,2.26,4.89.8,1.51,1.76,2.92,2.51,4.45,1.27,2.6,1.46,5.41,1.52,8.27.06,2.92,4.6,2.93,4.53,0h0l-.05.02Z"/>
      <path class="st8" d="M299.28,710.8c6.02,1.24,11.79,3.65,17.39,6.12,3.83,1.69,7.48,4.05,9.21,7.94.89,2.02,1.07,4.38,1.1,6.65.03,2.95-.11,5.93-.61,8.83-.5,2.98-1.32,5.9-2.45,8.69-.86,2.15-1.94,4.23-2.9,6.34-1.66,3.69-3.36,7.62-6.38,10.26-1.24,1.08-2.96,1.88-4.72,2.12-1.11.16-2.27.13-3.4.2-1.21.08-2.46.2-3.65.05-.39-.05-.85-.16-1.16-.31.02,0-.74-.49-.39-.22-.13-.09-.25-.22-.38-.33-.89-.8-1.68-1.71-2.45-2.62-1.43-1.73-2.85-3.54-4.05-5.43-1.49-2.32-1.4-5.49-1.93-8.12-.63-3.06-.56-6.2-.56-9.3,0-3.62-.06-7.25.14-10.85.2-3.56.85-6.9,1.74-10.35.74-2.85.69-5.83.86-8.75.17-2.64.61-5.32,2.45-7.34,1.94-2.16-1.25-5.38-3.22-3.22-2.12,2.34-3.15,5.13-3.56,8.22-.35,2.68-.22,5.41-.58,8.09-.2,1.49-.69,2.9-1.04,4.36-.44,1.85-.72,3.73-.94,5.63-.38,3.36-.42,6.73-.42,10.1,0,3.54-.14,7.14.17,10.67.16,1.73.49,3.4.8,5.11.3,1.58.39,3.2.78,4.77.66,2.64,2.34,4.71,3.94,6.82,1.55,2.07,3.15,4.27,5.19,5.88,2.38,1.9,5.35,1.88,8.23,1.68,2.7-.19,5.29-.25,7.8-1.36,4.28-1.88,7.01-5.98,9.02-10.02,1.05-2.1,1.94-4.25,2.95-6.37,1.33-2.82,2.59-5.65,3.45-8.66.91-3.2,1.43-6.51,1.66-9.82.22-3.15.31-6.43-.24-9.57-1-5.66-4.96-9.96-9.9-12.63-3.14-1.69-6.54-2.96-9.85-4.27-3.54-1.4-7.17-2.65-10.9-3.42-1.19-.25-2.45.35-2.79,1.58-.31,1.13.38,2.54,1.58,2.79h0v.06Z"/>
      <path class="st8" d="M407.61,655.39c-3.75-.61-7.72,2.02-10.59,4.14-1.47,1.1-2.96,2.26-4.14,3.69-1.35,1.65-1.79,3.54-1.93,5.65-.16,2.37.09,4.75.31,7.09.22,2.31.25,4.58.35,6.89.13,3.14.5,6.27,1.07,9.36.56,3.04,1.29,6.18,2.51,9.03,1.84,4.28,5.43,7.29,9.82,8.72,2.2.72,4.55,1.02,6.84,1.08,3,.08,6.09.42,9.08.14,2.18-.2,4.42-.71,5.88-2.46,1.52-1.84,2.68-4.53,2.85-6.9.17-2.24-1.14-4.2-1.21-6.42-.05-1.43-.22-2.78-1-4-.66-1.02-1.68-1.79-2.18-2.92-1.29-2.92-1.62-6.21-2.21-9.32-.28-1.49-.61-2.98-1.1-4.41-.55-1.63-1.3-3.18-1.93-4.78-.61-1.6-1.22-3.22-1.9-4.78-.69-1.57-1.55-2.84-2.56-4.23-1.79-2.46-2.12-5.55-4.05-7.95-.77-.96-2.4-.8-3.22,0-.94.94-.77,2.24,0,3.22,1.43,1.77,1.6,4.36,2.81,6.27.63.99,1.43,1.87,2.04,2.87.71,1.14,1.18,2.45,1.66,3.69.99,2.53,2.2,5.03,2.96,7.64.74,2.45,1.08,4.99,1.57,7.5.47,2.42,1,5.21,2.35,7.31.56.88,1.51,1.57,1.98,2.48.49.96.2,2.29.39,3.34.17,1.02.56,1.98.86,2.96.24.8.28,1.07.13,1.77-.24,1-.69,1.99-1.18,2.89-.08.16-.16.3-.25.44,0,0-.45.61-.17.28-.09.11-.19.22-.3.3-.38.33.2-.09-.2.14-.03,0-.64.27-.27.14-.16.06-.31.09-.47.14-.42.11-.86.19-1.3.25-1.41.16-2.85.08-4.28,0-2.37-.11-4.78,0-7.14-.31-3.47-.44-6.89-1.85-8.96-4.72-1.32-1.84-1.91-3.97-2.49-6.13-.71-2.65-1.25-5.35-1.57-8.06-.3-2.6-.33-5.18-.41-7.78-.06-1.99-.33-3.97-.49-5.94-.17-2.15-.39-4.56.16-6.49.05-.14.09-.31.14-.45-.13.31.08-.13.11-.19.06-.11.14-.22.22-.33-.3.45.03-.03.09-.11.58-.64,1.21-1.25,1.88-1.82,1.4-1.18,3.09-2.32,4.82-3.25.42-.22.85-.44,1.27-.63.35-.16.38-.17.88-.35.39-.13.77-.24,1.18-.31-.69.14.94.11.06-.03,1.21.2,2.74-1.4,3.09-2.67.3-1.08-.67-1.51-1.88-1.71h0v.05Z"/>
      <path class="st8" d="M402.09,762.37c-4.39.99-7.25,5.54-9.74,8.89-.14.19-.28.38-.42.56-.33.44.38-.45-.17.22-.38.47-.77.94-1.14,1.43-.72.93-1.41,1.87-1.99,2.89-.47.8-.91,1.62-1.43,2.38-.09.13-.17.25-.27.38q.09-.13,0,0c-.16.2-.36.38-.52.56-.19.16-.2.19-.08.09s.09-.06-.08.06c-.24.13-.2.13.06,0-.11.03-.22.06-.33.08-1.21.24-1.9,1.68-1.58,2.79.35,1.25,1.58,1.82,2.79,1.58,2.24-.44,3.7-2.81,4.75-4.63,1.18-2.01,2.13-3.26,3.5-5.03,1.29-1.66,2.32-3.22,3.59-4.67.69-.8,1.43-1.57,2.24-2.24-.25.2.3-.22.36-.25.22-.14.42-.28.66-.39.05-.03.64-.28.22-.13.25-.09.5-.17.77-.22,1.19-.27,1.9-1.65,1.58-2.79-.35-1.24-1.6-1.85-2.79-1.58h0l.02.02Z"/>
      <path class="st8" d="M356.83,827.82c-3.56,7.86-5.19,16.08-6.18,24.59-.5,4.27-2.01,8.34-2.74,12.56-.72,4.16-.8,8.38-.69,12.59.13,4.78.5,9.55.52,14.34,0,2.92,4.55,2.92,4.53,0-.02-8.14-1.24-16.39-.17-24.52.53-4.09,1.93-8.01,2.67-12.06.74-4.06,1-8.17,1.85-12.22.94-4.45,2.26-8.85,4.14-13,.5-1.11.31-2.45-.82-3.11-.97-.56-2.59-.31-3.11.82h0Z"/>
      <path class="st8" d="M403.27,1035.74c-.02,2.53-.41,5.03-.5,7.56-.08,2.49.02,5.33,1.44,7.48,2.76,4.19,8.45,4.69,13.03,4.34,3.98-.3,7.61-2.1,8.89-6.1,1.1-3.39.24-7.28-.93-10.54-1.3-3.69-3.12-7.28-5.44-10.43-1.33-1.82-4.06-1.21-4.23,1.14-.13,1.66.36,3.2,1.1,4.66.58,1.14,1.49,2.24,1.79,3.47.64,2.59-1.79,3.67-3.75,5-2.4,1.63-.14,5.57,2.29,3.92,2.96-2.01,6.04-3.97,6.1-7.97.02-1.84-.66-3.48-1.57-5.03-.75-1.32-1.54-2.46-1.43-4.05-1.41.38-2.82.77-4.23,1.14,1.76,2.38,3.22,5,4.38,7.73-.13-.3.02.06.05.09.09.22.17.42.25.64.14.36.27.72.39,1.08.27.78.52,1.58.71,2.38.09.36.17.71.24,1.07.03.14.17,1.11.11.66.08.74.13,1.47.08,2.21,0,.19-.03.38-.05.56,0-.08.08-.47,0-.05-.06.3-.13.6-.2.88-.05.17-.11.33-.17.5.17-.47.05-.11-.02.02-.16.28-.3.55-.49.82.33-.45-.28.27-.41.39-.08.09-.42.33-.03.05-.13.09-.25.17-.39.27s-.99.49-.63.35c-.41.16-.85.28-1.29.38-.74.17-1.27.19-2.21.22-.99.03-1.98.02-2.96-.06-1.55-.13-3.47-.52-4.58-1.52-.72-.66-.99-1.32-1.19-2.29-.24-1.11-.2-2.32-.16-3.48.08-2.53.47-5.03.5-7.56.03-2.92-4.52-2.92-4.53,0h0l.05.06Z"/>
      <path class="st8" d="M409.54,1040.65c-.61.45-1.21.93-1.79,1.41-.22.19-.45.38-.67.55-.14.11-.58.42.03-.03-.09.08-.19.14-.3.22-.42.31-.88.6-1.35.83-.5.25.44-.16.08-.03-.13.05-.25.09-.38.14-.27.08-.53.14-.8.17.2-.03.41-.05.6-.08-.49.06-.97.06-1.46,0,.2.03.41.05.6.08-.17-.02-.33-.05-.5-.08-.2,1.49-.41,2.96-.6,4.45,1.62,0,3.2.38,4.82.3,1.08-.05,2.24-.24,3.17-.82,1.24-.78,1.87-2.01,1.96-3.45.08-1.19-1.1-2.32-2.27-2.27-1.3.06-2.18,1-2.27,2.27,0,.08,0,.14-.02.22.03-.2.05-.41.08-.6-.02.13-.06.24-.08.36-.06.24.3-.6.14-.33-.03.05-.06.11-.09.16-.13.25.39-.44.24-.28-.03.03-.06.08-.09.11-.03.03-.13.09-.14.13,0-.02.55-.38.28-.24-.09.05-.19.09-.27.16-.2.13.63-.24.33-.14-.06.02-.13.05-.19.06-.25.08-.5.13-.77.16.2-.03.41-.05.6-.08-1.82.24-3.61-.24-5.43-.24-1.13,0-2.09.86-2.23,1.96-.14,1.04.52,2.27,1.63,2.49,1.16.22,2.21.25,3.37.05.85-.16,1.68-.52,2.43-.96s1.44-.99,2.12-1.54c.3-.24.6-.49.89-.74.14-.13.3-.24.44-.36.13-.09.49-.35-.09.08.09-.06.19-.14.28-.2.49-.36.88-.74,1.04-1.35.16-.55.08-1.27-.24-1.74-.31-.49-.78-.91-1.35-1.04-.56-.13-1.27-.13-1.76.24h0l.02-.02Z"/>
      <path class="st8" d="M403.22,1043.85c-2.26.31-4.33,1.51-6.6,1.68-2.7.2-5.43-.08-8.14-.03-1.98.03-3.94.27-5.91.28-1.6,0-3.51,0-4.75-.88-.35-.24-.72-.8-1.02-1.46-.35-.78-.58-1.74-.78-2.62-.44-1.94-.67-3.94-.99-5.91-.88-5.36-1.04-10.82-1.73-16.22-.36-2.81-.83-5.58-1.58-8.31-.74-2.65-1.63-5.27-2.42-7.92-1.6-5.36-3.09-10.76-4.47-16.19-1.36-5.36-2.84-10.79-3.64-16.28-.69-4.74-.85-9.58-2.2-14.19-1.07-3.64-2.68-7.72-5.9-9.98-.72-.52-1.66-1.05-2.57-1.05s-1.88.6-2.56,1.19c-1,.91-1.6,2.23-1.84,3.56-.58,3.26.16,6.68.96,9.83.71,2.76,1.65,5.43,2.48,8.14,1.49,4.8,2.24,9.82,3.14,14.74,1.02,5.58,2.56,10.99,4,16.47,1.47,5.57,2.89,11.17,4.45,16.72,1.52,5.38,3.53,10.7,4.41,16.23.74,4.56.47,9.24,2.38,13.55,1.77,4,5.46,6.54,9.65,7.53,3.92.93,7.95.74,11.95.72,4.2-.03,8.36-.2,12.22-2.04,1.96-.94,3.72-2.31,5.33-3.76,2.16-1.96-1.05-5.16-3.22-3.22-1.46,1.32-3.11,2.54-4.93,3.28-1.76.71-3.59.99-5.46,1.1-4.03.25-8.28.35-12.31-.06-3.7-.38-7.31-1.74-9.03-5.24-2.02-4.08-1.54-9.11-2.29-13.5-.97-5.68-3.04-11.14-4.58-16.66-1.57-5.63-3-11.29-4.49-16.92-1.47-5.54-2.93-11.01-3.95-16.66-.86-4.75-1.65-9.55-3.12-14.15-1.08-3.34-2.2-6.68-2.87-10.13-.3-1.57-.47-2.92-.36-4.71.03-.63-.06.3,0-.08.03-.22.08-.42.14-.63.03-.11.08-.22.09-.33.13-.49-.19.31.03-.08.08-.14.16-.27.25-.41-.24.36-.16.05.05,0,.27-.08.03,0-.11.06.14-.08.74-.33.16-.11h-1.21c.3.11.82.44,1.18.78.56.55.86.96,1.27,1.65.85,1.38,1.46,2.85,1.94,4.39,1.25,3.89,1.58,7.92,2.07,11.95.6,5.05,1.74,9.96,2.92,14.9,1.21,5.02,2.53,10.02,3.92,14.99,1.35,4.78,3.01,9.5,4.27,14.3,1.25,4.8,1.63,9.76,2.07,14.7.39,4.49.97,8.96,1.73,13.41.6,3.47,1.63,7.45,5.14,9,3.87,1.73,8.2.75,12.28.74,2.87-.02,5.79.3,8.66-.03,2.43-.28,4.63-1.43,7.04-1.76,1.21-.17,1.88-1.73,1.58-2.79-.36-1.3-1.57-1.76-2.79-1.58h0l.05-.03Z"/>
      <path class="st5" d="M473.47,1115.71"/>
      <path class="st5" d="M447.59,1104.55"/>
      <path class="st5" d="M427.52,1098.35"/>
      <path class="st5" d="M220.32,1089.25"/>
      <path class="st5" d="M205.15,1088.61"/>
      <path class="st5" d="M186.79,1087.15"/>
      <circle class="st5" cx="401.84" cy="1135.2" r="11.17"/>
      <path class="st5" d="M165.33,1146.85"/>
      <path class="st5" d="M474.48,1118.74"/>
      <path class="st6" d="M368.24,902.8c-.11,10.26,3.25,20.19,6.56,29.89,5.76,16.89,4.22,31.59,9.54,48.62,5.32,17.03,8.83,35.73,14.74,54.21"/>
      <path class="st6" d="M399.03,1033.1c11.56,3.09,22.07-4.02,28.48-14.12.17,7.72-.96-19.21-8.45-43.27-5.32-17.03-4-38.63-9.76-55.51-3.31-9.71-6.65-19.64-6.56-29.89"/>
      <path class="st3" d="M335.43,579.75c.63,4.89,4.53,8.58,7.21,12.72,4.91,7.59,5.79,17.03,6.52,26.05-.09-1.24-13.19.16-14.43.17-4.75.06-3.39-5.54-3.4-9.35-.03-9.99,1.35-19.98,4.11-29.58l-.02-.02Z"/>
    </g>
    <g>
      <path class="st7" d="M1014.61,319.56c-28.33-63.15-45.42-104.32-45.42-104.32l-92.26-180.23s-132.05-36.07-207.9,43.43c0,0,53.14,222.11,58.61,226.74,5.46,4.61,25.38,86.89,25.38,86.89l23.21,130.25s22.7,11.47,36.8-25.32c14.08-36.78,13.77-64.56,15.57-71.05,1.8-6.49-18.18-49.05-15.95-55.56,2.23-6.49,3.17-43.05,9.07-45.11s7.4,43.85,7.4,43.85l46.21,90.86-14.16,32.45s-9.98,43.01-4.63,56.92,15.25,27.42,22.85,23.26c7.61-4.17,45.3-72.31,45.3-72.31,0,0,53.14-11.12,71.93-27.86,18.79-16.75,25-34.76,25-34.76,0,0,8.88,8.38,13.57-4.25,4.69-12.63,7.75-50.77-20.58-113.92v.02ZM860.41,370.47c-10.12,0-10.09-15.68,0-15.68s10.09,15.68,0,15.68ZM876.38,330.32c-.82,2.38-2.68,4.36-5.62,4.86-1.25,1.63-3.23,2.76-5.91,2.76-9.33,0-10.02-13.36-2.13-15.42,1-2.64,3.31-4.72,6.98-4.72,3.34,0,5.55,1.71,6.7,4,1.46,2.56,1.44,5.96-.02,8.5v.02Z"/>
      <polygon class="st7" points="820.2 568.99 837.9 570.99 826.69 597.34 810.1 602.09 815.27 577.17 820.2 568.99"/>
      <path class="st8" d="M746.4,352.26c-.24-1.21-1.68-1.9-2.79-1.58-1.24.35-1.82,1.58-1.58,2.79.63,3.17,1.18,6.35,1.71,9.55,1.08,6.52,2.02,13.08,3.18,19.59,1.14,6.51,2.67,12.96,4,19.43,2.65,12.86,3.18,25.96,4.36,38.99.6,6.68,1.41,13.33,2.57,19.95,1.13,6.48,2.43,12.91,3.69,19.35,1.25,6.45,2.45,12.89,3.39,19.39.41,2.81.77,5.63,1.02,8.47.2,2.38.39,4.78.88,7.14.45,2.18,1.24,4.39,2.56,6.21,1.54,2.1,3.61,3.5,6.01,4.44,4.53,1.79,9.82,1.35,14.38-.13,4.74-1.52,8.78-4.17,12.12-7.84,3.78-4.14,6.93-8.85,9.63-13.76,2.73-4.93,5.03-10.09,7.12-15.31,1.08-2.71,2.04-5.43,2.56-8.31.56-3.22.8-6.48,1.1-9.72.56-6.26,2.16-12.36,2.92-18.59.39-3.26.36-6.51.35-9.77v-9.76c-.03-6.62-.2-13.25-1.05-19.84-.8-6.18-1.18-12.59-2.9-18.6-.86-2.98-1.84-5.9-2.54-8.94-.74-3.18-1.41-6.37-2.37-9.5-.85-2.76-1.55-5.6-2.54-8.31-.86-2.37-2.09-4.85-1.77-7.42.14-1.22-1.16-2.27-2.27-2.27-1.33,0-2.12,1.05-2.27,2.27-.3,2.56.63,5.11,1.51,7.47.96,2.57,1.65,5.22,2.46,7.84.93,3,1.71,6.01,2.42,9.08,1.35,5.99,3.54,11.73,4.41,17.82.88,6.12,1.71,12.31,2.09,18.48.38,6.4.33,12.81.33,19.21,0,3.15.13,6.32-.08,9.47-.2,3.03-.74,6.02-1.3,9-.58,3.14-1.21,6.26-1.58,9.41-.36,3.04-.52,6.12-.88,9.16-.67,5.55-2.79,10.68-5.05,15.76-2.21,4.97-4.71,9.83-7.67,14.38-1.4,2.15-2.9,4.22-4.56,6.18-1.46,1.71-3.01,3.47-4.85,4.77-3.61,2.56-8.05,4.23-12.5,4.34-4.08.11-8.41-1.18-10.27-5.07-1.84-3.83-1.65-8.58-2.13-12.74-1.47-12.67-4.16-25.16-6.54-37.67-1.21-6.31-2.32-12.63-3.04-19.01-.74-6.46-1.21-12.97-1.73-19.45-.5-6.38-.99-12.8-1.94-19.14-.96-6.4-2.45-12.69-3.8-19.01-2.7-12.66-4.17-25.52-6.67-38.22h-.05Z"/>
      <path class="st8" d="M840.59,364.58c.05-2.93-4.49-2.92-4.53,0-.06,3.83-.28,7.64-.61,11.45-.67,7.69-1.84,15.32-2.59,22.99-.75,7.72-1.07,15.48-1.99,23.18-.91,7.53-2.54,14.96-3.72,22.44-1.21,7.62-2.21,15.26-3.59,22.85-.69,3.81-1.57,7.61-2.18,11.43-.61,3.81-.91,7.67-1.19,11.51-.27,3.64-.52,7.29-1.16,10.89-.67,3.78-1.82,7.47-2.64,11.23-1.6,7.45-2.68,15.01-4,22.51-.35,1.93-.47,3.84-.47,5.79s.11,3.84-.17,5.74c-.24,1.62-.72,3.18-1,4.8-.27,1.51-.31,3-.41,4.5-.31,4.66-1.69,11.48,3.61,13.88,2.32,1.05,4.85,1.25,7.34,1.65,3.22.49,6.16,1.93,9.3,2.71,2.46.61,5.22.96,7.64,0,2.12-.83,3.67-2.48,4.61-4.53,1.11-2.45,1.54-5.03,2.05-7.64.71-3.56,1.65-7.07,2.65-10.56,1.02-3.56,2.09-7.11,3.01-10.7.93-3.61,1.57-7.23,2.15-10.9,1.25-7.84,2.56-15.67,3.89-23.5,2.64-15.5,5.27-30.99,8.05-46.46,1.36-7.65,3.01-15.34,3.14-23.15.03-1.96-.05-3.91.11-5.87.14-1.77.38-3.54.63-5.3.53-3.81.93-7.54.85-11.4-.08-3.65.14-7.07.93-10.65.82-3.69,1.85-7.4,1.96-11.18.05-1.8-.14-3.59-.14-5.4,0-1.66.33-3.03.93-4.56.63-1.58,1.02-3.14.93-4.85-.06-1.13-.47-2.65.33-3.59-1.27-.33-2.53-.67-3.8-1,.13.35.25.69.38,1.05.41,1.16,1.54,1.93,2.79,1.58,1.11-.31,1.99-1.63,1.58-2.79-.13-.35-.25-.69-.38-1.05-.52-1.47-2.6-2.4-3.8-1s-1.79,2.93-1.79,4.78c0,1.35.31,2.68-.05,4-.42,1.49-1.19,2.85-1.44,4.39-.3,1.77-.25,3.53-.16,5.32.08,1.74.13,3.48-.09,5.22-.24,1.82-.66,3.61-1.07,5.4-.83,3.64-1.66,7.28-1.69,11.03-.05,3.67.14,7.28-.3,10.93-.42,3.59-1.11,7.17-1.24,10.79-.14,3.83-.08,7.59-.52,11.4-.89,7.58-2.53,15.1-3.83,22.62-2.64,15.2-5.32,30.4-7.87,45.61-1.27,7.59-2.23,15.28-3.8,22.81-1.46,7.06-3.84,13.88-5.6,20.86-.77,3.07-1.21,6.21-2.01,9.27-.16.58-.33,1.16-.53,1.74-.17.49-.14.42-.42.97-.11.22-.25.45-.38.66-.05.08-.36.5-.25.38.08-.09-.86.8-.52.53-.19.14-.39.25-.6.38-.08.05-.19.09-.27.14.03-.02.31-.13.06-.03-.24.08-.49.16-.74.22-.09.02-.63.09-.31.06-1.18.13-2.35-.03-3.5-.3-3.14-.72-6.05-2.2-9.24-2.74-2.29-.39-4.74-.45-6.92-1.35-.09-.03-.22-.09-.47-.25-.08-.05-.53-.38-.28-.17-.33-.27-.35-.38-.42-.58-.38-1.08-.39-2.07-.38-3.29.03-2.48.3-4.97.45-7.45.09-1.52.5-3.01.83-4.49.42-1.87.66-3.75.69-5.68.03-1.87-.06-3.75.05-5.62.13-1.84.53-3.64.85-5.46.63-3.72,1.22-7.43,1.87-11.15.64-3.65,1.35-7.28,2.2-10.89.88-3.69,1.88-7.29,2.4-11.07.99-7.36.89-14.84,2.38-22.12,1.51-7.42,2.82-14.88,3.95-22.37,1.13-7.51,2.35-14.99,3.65-22.49,1.32-7.51,2.05-15.04,2.65-22.65.58-7.61,1.38-15.18,2.31-22.76.93-7.56,1.71-15.14,1.84-22.76h0l.02.03Z"/>
      <path class="st8" d="M975.66,402.75c-.61-2.35-1.58-4.6-2.37-6.9-.82-2.38-1.36-4.85-2.04-7.28-1.44-5.13-4.11-9.85-6.27-14.7-2.15-4.83-4.36-9.63-6.59-14.41-2.27-4.88-4.5-9.8-7.03-14.57-2.42-4.55-5.19-8.89-7.81-13.32-2.51-4.22-5.57-8.11-7.98-12.39-1.14-2.02-1.49-4.36-2.74-6.32-1.13-1.77-2.73-3.31-3.51-5.3-.44-1.08-1.29-1.77-2.49-1.63-1.07.13-2.02,1.11-1.96,2.23.08,1.73.11,3.43.11,5.16,0,2.18,2.49,2.73,3.78,1.66.94,1.62,1.36,3.36,2.16,5.07,2.05,4.33,5.3,8,7.75,12.11,2.62,4.41,5.38,8.74,7.86,13.22,2.53,4.56,4.72,9.32,6.92,14.04,2.2,4.72,4.42,9.43,6.54,14.19,1.08,2.45,2.16,4.89,3.29,7.32,1.07,2.31,2.29,4.55,3.09,6.96.78,2.38,1.3,4.83,2.01,7.23.71,2.4,1.68,4.69,2.46,7.06,2.81,8.63.13,18.08-3.81,25.91-2.1,4.17-4.94,7.83-7.23,11.86-1.19,2.1-2.27,4.25-3.54,6.31-1.36,2.16-3,4.16-4.53,6.21-3.09,4.16-6.21,8.23-8.81,12.72-1.16,2.01-2.35,3.94-3.83,5.74-1.46,1.77-3,3.5-4.44,5.3-3.12,3.92-5.44,8.39-8.19,12.58-1.47,2.24-2.98,4.47-4.47,6.68-1.3,1.94-2.73,3.86-3.76,5.98-.86,1.77-1.36,3.72-2.4,5.4-.96,1.58-2.34,2.9-3.45,4.38-2.71,3.59-4.41,7.87-6.02,12.03-1.63,4.22-3.34,8.23-5.68,12.14-2.53,4.22-4.93,8.47-7.14,12.86-1.18,2.34-2.45,4.63-3.62,6.95-1,1.98-1.55,4.11-2.18,6.21-1.1,3.62-3.33,6.45-6.87,7.97-1.52.64-3.25,1.02-4.89.8-1.79-.24-3.09-1.18-4.39-2.35-3.01-2.73-5.85-5.68-8.11-9.08-2.31-3.47-4.08-7.34-5.03-11.42-1.13-4.85-.77-9.91-.66-14.85.11-5.11-.06-10.24.36-15.34.42-5.11,1.73-10.02,3.01-14.96.58-2.27,1.14-4.47,2.21-6.57,1.04-2.05,2.2-4.03,3.07-6.15.97-2.32,1.62-4.74,2.4-7.12.77-2.32,1.87-4.38,3.06-6.49,1.18-2.09,2.38-4.22,3.2-6.49.72-2.02,1.1-4.11,2.12-6.01,2.42-4.47,5.19-8.74,7.83-13.08,2.57-4.23,5.07-8.53,6.74-13.19,1.58-4.41,2.6-9.05,4.8-13.22,2.32-4.41,5.18-8.47,6.92-13.16,1.55-4.19,1.79-8.74,1.44-13.14-.36-4.64-1.27-9.22-2.48-13.71-.56-2.12-1.14-4.25-2.04-6.26-.89-1.99-2.16-3.78-3.22-5.69-2.32-4.19-2.82-9.08-4.27-13.6-1.58-4.97-3.48-9.87-5.3-14.76-1.77-4.77-3.86-9.4-5.74-14.12-1.51-3.76-2.37-7.95-5.02-11.09,1.04,2.1,1.14,4.67.33,6.89.24,1.33.17,2.71-.19,4.02.36,1,.75,2.01,1.14,3,1.94,4.78,4.05,9.5,5.76,14.38,1.76,5,3.84,9.93,5.27,15.03.64,2.31,1.08,4.66,1.77,6.95.71,2.37,1.71,4.6,2.98,6.73,1.13,1.9,2.35,3.75,3.04,5.87.67,2.09,1.24,4.2,1.74,6.34,1.07,4.41,1.84,8.92,1.82,13.47,0,4.67-1.27,8.77-3.47,12.88-2.38,4.44-5.11,8.53-6.81,13.32-1.6,4.52-2.73,9.14-4.94,13.43-2.35,4.53-5.11,8.83-7.78,13.18-1.35,2.2-2.68,4.41-3.92,6.65-1.16,2.1-1.85,4.23-2.54,6.52-1.4,4.66-4.61,8.52-6.26,13.1-.85,2.35-1.46,4.78-2.34,7.12-.8,2.09-1.96,4-2.96,5.99-2.32,4.55-3.33,9.74-4.47,14.7-1.19,5.13-1.65,10.35-1.74,15.61-.09,5.1-.19,10.21-.19,15.29s.6,9.76,2.37,14.38c1.57,4.09,3.75,7.8,6.48,11.23,1.29,1.62,2.67,3.12,4.14,4.58,1.52,1.51,3.12,3.18,4.99,4.28,7.26,4.34,17.13-.83,20.12-8.08.85-2.04,1.3-4.2,2.04-6.29.78-2.2,2.13-4.23,3.2-6.32,2.29-4.52,4.6-8.99,7.21-13.32,2.49-4.13,4.6-8.28,6.31-12.78,1.58-4.16,3.17-8.42,5.72-12.11,1.1-1.58,2.48-2.93,3.59-4.5,1.18-1.66,1.74-3.61,2.56-5.44.91-2.07,2.24-3.91,3.48-5.77,1.49-2.23,3-4.44,4.49-6.68,2.79-4.23,5.13-8.89,8.31-12.85,3.01-3.75,6.15-7.21,8.58-11.4,2.59-4.49,5.69-8.56,8.78-12.72,1.57-2.12,3.28-4.17,4.67-6.42,1.32-2.12,2.43-4.34,3.67-6.51,2.31-4.03,5.14-7.67,7.21-11.86,2.09-4.2,3.8-8.66,4.71-13.28.93-4.66,1.16-9.57-.03-14.19l-.06.03Z"/>
      <path class="st8" d="M930.13,489.66c-2.92,0-2.92,4.53,0,4.53,2.38,0,4.78.03,7.17.05,4.88.05,9.82.27,14.68-.11,4.77-.38,9.4-1.58,14.04-2.64,4.34-.97,8.45-2.31,12.55-4.05,3.98-1.71,7.87-3.67,11.84-5.43,6.67-2.96,13.3-6.59,18.37-11.95,2.65-2.81,4.75-6.04,6.15-9.65,1.47-3.81,2.18-7.87,2.56-11.92.8-8.25.08-16.55-.13-24.8-.22-8.72-3.42-16.69-7.03-24.48-1.8-3.91-3.75-7.69-4.78-11.89-.55-2.21-1.21-4.36-2.38-6.32-1.08-1.8-2.38-3.45-3.42-5.27-2.31-4.02-4.08-8.31-5.98-12.53-1.99-4.42-4.23-8.72-6.42-13.05-2.2-4.34-4.41-8.67-6.62-13.02-2.05-4.03-3.84-8.33-6.57-11.95-1.08-1.44-2.29-2.95-2.92-4.6-.49-1.29-.78-2.67-1.16-3.98-.8-2.79-1.94-6.4-4.83-7.7-1.32-.6-2.9-.17-3.33,1.35-.09.33-.19.66-.28,1-.8,2.82,3.58,4.02,4.38,1.21.09-.33.19-.66.28-1-1.11.45-2.23.91-3.33,1.35.09.05.74.42.45.2.06.05.61.61.42.38.42.52.74,1.16,1,1.77,1.04,2.4,1.43,5.4,2.57,7.92.8,1.77,2.02,3.28,3.17,4.82,1.29,1.73,2.23,3.61,3.2,5.52,4.31,8.49,8.66,16.96,12.92,25.46,2.04,4.08,3.87,8.23,5.76,12.38.93,2.04,1.9,4.06,3,6.02,1,1.8,2.2,3.45,3.33,5.18,1.18,1.79,1.84,3.61,2.35,5.66.55,2.18,1.16,4.22,2.07,6.27,1.65,3.73,3.45,7.39,5.08,11.12,1.6,3.67,2.96,7.45,3.8,11.37.83,3.92.78,7.89.94,11.87.3,7.95.86,16.11-.63,23.97-.67,3.58-1.76,7.04-3.69,10.13-1.84,2.93-4.31,5.44-7.04,7.56-5.82,4.52-12.7,7.21-19.31,10.34-3.72,1.76-7.43,3.48-11.36,4.75-4.17,1.35-8.55,2.21-12.83,3.11-4.55.96-9.02,1.11-13.65,1.11s-9.57-.11-14.35-.11h0l-.06.05Z"/>
      <path class="st8" d="M1015.89,444.36c-2.89.41-1.65,4.78,1.21,4.38,3.12-.44,5.71-2.23,8.22-4.03,5.02-3.58,11.64-4.71,15.36-9.94,3.97-5.57,3.86-12.59,3.53-19.14-.36-6.89-.22-13.91-1.24-20.72-1.08-7.21-3.4-14.16-5.36-21.17-4.25-15.17-7.92-30.38-13.72-45.08-2.82-7.15-5.88-14.19-8.69-21.35-2.71-6.89-5.27-13.72-8.56-20.37-3.34-6.76-6.82-13.41-9.85-20.33-3.12-7.12-6.13-14.27-9.36-21.35-3.22-7.03-6.65-13.96-10.52-20.64-3.83-6.59-8-12.99-12.03-19.45-8.22-13.13-14.9-27.09-22.37-40.64-3.84-6.96-7.73-13.87-11.32-20.97-3.53-7-6.87-14.1-10.24-21.19-3.37-7.07-6.93-13.98-10.92-20.72-3.87-6.56-7.73-13.08-11.25-19.84-1.79-3.43-3.76-6.73-5.65-10.1-1.73-3.09-3.04-6.35-4.44-9.6-1.43-3.33-3.43-6.46-4.74-9.82-1.16-3.01-1.29-6.18-1.33-9.38-.05-2.92-4.53-2.92-4.53,0v1.05c0,2.92,4.53,2.92,4.53,0v-1.05h-4.53c.05,3.15.17,6.37,1.1,9.4.99,3.25,2.9,6.1,4.31,9.18,1.47,3.2,2.73,6.51,4.27,9.68,1.58,3.31,3.62,6.37,5.35,9.6,1.73,3.22,3.33,6.48,5.08,9.68,3.67,6.7,7.81,13.13,11.56,19.79,3.76,6.71,6.95,13.74,10.26,20.69,6.65,13.98,14.01,27.46,21.41,41.05,3.72,6.82,7.14,13.8,10.81,20.66,3.54,6.6,7.53,12.94,11.53,19.26,4,6.34,8.03,12.66,11.62,19.23,3.67,6.7,6.92,13.61,10.02,20.59,3.11,6.96,6.01,14.01,9.16,20.95,3,6.6,6.49,12.97,9.61,19.51,3.23,6.79,5.65,13.91,8.49,20.88,2.84,7,5.82,13.94,8.5,21.02,5.43,14.35,8.74,29.3,13,44.01,1.99,6.89,4.17,13.8,4.8,20.97.3,3.43.16,6.89.35,10.34.19,3.47.49,6.92.52,10.4.06,6.6-1.16,13.02-7.61,16.16-2.78,1.35-5.62,2.34-8.16,4.11-2.56,1.77-4.96,3.83-8.14,4.28h0l-.02.03Z"/>
      <path class="st8" d="M846.81,316.36c-4.61,1.08-9.1,2.45-13.41,4.49-4.03,1.91-7.92,4.34-11.18,7.4-3.14,2.95-5.43,6.68-7.23,10.56-1.84,3.94-3.33,8.03-5.1,11.98-1.14,2.56-2.24,5.16-2.9,7.86-.36.36-.6.86-.6,1.52,0,1.19,0,2.4-.03,3.59v.49c.11,2.92,4.47,2.92,4.53,0h0c-.19-4.78,1.99-9.07,3.87-13.33,1.82-4.09,3.25-8.36,5.36-12.31,1.87-3.48,4.22-6.48,7.34-8.91,3.17-2.46,6.79-4.45,10.51-5.98,2.92-1.19,5.93-2.05,8.99-2.79-.44-1.47-.5-3.09-.14-4.6l-.02.03Z"/>
      <path class="st8" d="M744.96,359.32c.61,2.85,4.99,1.65,4.38-1.21-.52-2.43-1.07-4.86-1.63-7.28-2.23-9.41-4.88-18.71-7.81-27.92-1.46-4.6-3.11-9.14-4.6-13.74-1.57-4.86-2.85-9.83-4.2-14.76-5.24-19.09-9.88-38.33-15.53-57.31-.69-2.34-1.3-4.61-1.74-7.01-.44-2.45-.88-4.89-1.35-7.34-.89-4.77-1.85-9.54-2.84-14.29-1.98-9.55-4.11-19.09-6.32-28.59-2.2-9.5-4.45-18.98-6.71-28.47-2.31-9.72-4.33-19.54-6.82-29.2-2.27-8.88-5.68-17.41-8.16-26.24-.64-2.32-1.11-4.71-1.88-6.98-.71-2.09-.89-4.19-.93-6.37-.03-2.1-.28-3.76-1-5.74-.72-1.96-.31-4.14-.8-6.18-.69-2.84-5.07-1.63-4.38,1.21.5,2.05.06,4.16.8,6.18.3.8.74,1.63.85,2.49.13.97,0,2.02.03,3.01.08,2.23.36,4.49,1.07,6.6.74,2.2,1.19,4.49,1.8,6.73.63,2.26,1.32,4.5,2.04,6.73,1.4,4.33,2.89,8.61,4.23,12.96,1.44,4.66,2.56,9.36,3.65,14.1,4.39,19.21,9.11,38.36,13.47,57.59,2.15,9.43,4.2,18.88,6.09,28.37.96,4.78,1.85,9.57,2.71,14.37.88,4.94,2.51,9.69,3.87,14.51,5.43,19.09,10.05,38.38,15.48,57.45,2.67,9.4,6.02,18.57,8.85,27.92,2.82,9.38,5.3,18.84,7.34,28.42h0l.03-.02Z"/>
      <path class="st8" d="M838.56,371.9c0,2.92,4.53,2.92,4.53,0,0-4.3,0-8.6.08-12.89.14-7.36.6-14.71,1.96-21.94.33-1.77.58-3.56.69-5.36.11-1.73.05-3.48.25-5.21.39-3.29,1.76-6.35,1.41-9.74-.13-1.22-.94-2.27-2.27-2.27-1.22,0-2.27,1.04-2.27,2.27v1c0,2.92,4.55,2.92,4.53,0v-1h-4.53c.39,3.76-1.35,7.39-1.51,11.15-.08,1.73-.11,3.43-.27,5.16-.16,1.74-.55,3.43-.83,5.16-.6,3.67-1.02,7.39-1.29,11.1-.53,7.51-.49,15.06-.49,22.6h0v-.03Z"/>
      <path class="st8" d="M869.31,386.53c-.13,1.22,1.14,2.27,2.27,2.27,1.32,0,2.15-1.05,2.27-2.27.47-4.5,1.08-8.99,1.77-13.46,1.22-8.03,2.65-16.03,3.73-24.08.52-3.78,1.4-7.54,1.73-11.34.35-4.02.09-8.12.09-12.16h-4.53v3.94c0,2.92,4.53,2.92,4.53,0v-3.94c0-2.92-4.53-2.92-4.53,0v7.15c0,2.07.06,4.14-.2,6.2-.25,1.85-.66,3.69-.96,5.54-.31,1.93-.53,3.87-.8,5.8-.58,4.02-1.22,8.01-1.87,12.03-1.3,8.08-2.62,16.17-3.47,24.33h0l-.05-.02Z"/>
      <path class="st8" d="M839.61,573.62c-.11-2.59-4.69-2.31-4.6.28.09,2.53.06,5.02-1.08,7.42-.67,1.4-1.57,2.71-2.29,4.09-.75,1.46-1.41,2.96-2.01,4.49-.93,2.32-1.52,4.77-2.54,7.07-.41.91-.91,2.04-1.85,2.62-.83.5-1.93.56-2.9.6-1.41.06-2.82,0-4.23.09-1.05.06-2.09.24-3.12.36-.63.08-1.24.14-1.87.14-.22,0-.39,0-.83-.09.41.09-.27-.11-.28-.13.36.14-.22-.22-.03,0-.33-.39-.49-.74-.63-1.22-.75-2.49.05-5.24.6-7.72.66-2.96.89-5.93.94-8.94.06-2.9.06-5.77.67-8.64.3-1.43.6-2.87.58-4.33-.03-1.35-.49-2.67-.03-4-1.25.38-2.53.75-3.78,1.13.5.31.5.3.52.78.11,2.59,4.71,2.31,4.6-.28-.06-1.41-.72-2.71-2.04-3.54-1.44-.91-3.25-.41-3.78,1.13-.63,1.84-.02,3.59-.06,5.44-.05,1.62-.61,3.22-.83,4.82-.53,3.81-.25,7.64-.56,11.45-.27,3.14-1.32,6.18-1.58,9.33-.22,2.64.03,6.13,2.67,7.84,2.18,1.41,4.89,1,7.42.69,2.89-.36,5.85,0,8.7-.61,3.36-.72,5.1-3.26,6.18-5.93,1.11-2.71,1.85-5.54,3.03-8.23,1.22-2.81,3.09-5.36,4.17-8.2.96-2.54,1-5.22.89-7.84h0l-.03-.06Z"/>
      <path class="st8" d="M775.48,505.42c-1.21.25-1.9,1.66-1.58,2.79.35,1.24,1.58,1.84,2.79,1.58,3.73-.77,7.36-2.02,10.9-3.42,3.31-1.3,6.71-2.57,9.85-4.27,4.94-2.67,8.89-6.96,9.9-12.63.55-3.14.47-6.4.24-9.57-.24-3.31-.75-6.62-1.66-9.82-.86-3.01-2.12-5.83-3.45-8.66-1-2.12-1.9-4.28-2.95-6.37-2.01-4.05-4.74-8.14-9.02-10.02-2.53-1.11-5.1-1.18-7.8-1.36-2.9-.2-5.87-.22-8.23,1.68-2.04,1.63-3.64,3.83-5.19,5.88-1.6,2.12-3.28,4.2-3.94,6.82-.39,1.57-.49,3.18-.78,4.77-.31,1.71-.66,3.37-.8,5.11-.31,3.53-.17,7.12-.17,10.67s.05,6.76.42,10.1c.22,1.9.5,3.78.94,5.63.35,1.46.83,2.87,1.04,4.36.36,2.68.24,5.41.58,8.09.41,3.09,1.44,5.88,3.56,8.22,1.96,2.18,5.16-1.05,3.22-3.22-1.84-2.02-2.27-4.71-2.45-7.34-.19-2.92-.14-5.9-.86-8.75-.88-3.43-1.54-6.79-1.74-10.35-.2-3.61-.13-7.23-.14-10.85,0-3.11-.06-6.24.56-9.3.53-2.64.45-5.8,1.93-8.12,1.21-1.88,2.62-3.7,4.05-5.43.77-.93,1.55-1.84,2.45-2.62.13-.11.25-.22.38-.33-.35.27.41-.24.39-.22.31-.16.78-.27,1.16-.31,1.19-.17,2.46-.05,3.65.05,1.13.08,2.29.05,3.4.2,1.76.25,3.48,1.04,4.72,2.12,3.04,2.64,4.72,6.57,6.38,10.26.96,2.12,2.04,4.19,2.9,6.34,1.13,2.79,1.94,5.72,2.45,8.69.5,2.92.64,5.88.61,8.83-.03,2.27-.2,4.61-1.1,6.65-1.73,3.91-5.36,6.26-9.21,7.94-5.6,2.48-11.37,4.89-17.39,6.12h0v.06Z"/>
      <path class="st8" d="M885.9,563.11c1.22-.2,1.88-1.71,1.58-2.79-.35-1.27-1.58-1.79-2.79-1.58.88-.14-.77-.17-.06-.03-.39-.08-.78-.19-1.18-.31-.49-.16-.53-.19-.88-.35-.42-.2-.85-.41-1.27-.63-1.73-.93-3.42-2.07-4.82-3.25-.67-.56-1.29-1.16-1.88-1.82-.06-.08-.41-.56-.09-.11-.08-.11-.16-.22-.22-.33-.03-.06-.24-.5-.11-.19-.06-.14-.11-.3-.14-.45-.55-1.93-.33-4.34-.16-6.49.16-1.98.42-3.95.49-5.94.09-2.6.11-5.19.41-7.78.31-2.71.86-5.43,1.57-8.06.58-2.15,1.18-4.3,2.49-6.13,2.07-2.89,5.49-4.28,8.96-4.72,2.35-.3,4.77-.2,7.14-.31,1.41-.06,2.87-.14,4.28,0,.44.05.88.13,1.3.25.16.05.33.09.47.14-.38-.14.25.13.27.14.41.24-.19-.19.2.14.11.09.2.2.3.3-.28-.33.17.28.17.28.09.14.17.3.25.44.49.91.94,1.88,1.18,2.89.16.71.11.96-.13,1.77-.3.99-.67,1.94-.86,2.96-.19,1.05.09,2.4-.39,3.34-.47.93-1.41,1.62-1.98,2.48-1.35,2.1-1.88,4.89-2.35,7.31-.49,2.51-.85,5.05-1.57,7.5-.77,2.6-1.99,5.11-2.96,7.64-.49,1.25-.96,2.54-1.66,3.69-.61,1-1.41,1.87-2.04,2.87-1.21,1.91-1.4,4.5-2.81,6.27-.77.96-.94,2.26,0,3.22.8.8,2.45.96,3.22,0,1.93-2.4,2.26-5.49,4.05-7.95,1-1.38,1.87-2.65,2.56-4.23.69-1.57,1.29-3.18,1.9-4.78.61-1.6,1.38-3.15,1.93-4.78.49-1.44.8-2.92,1.1-4.41.6-3.09.94-6.4,2.21-9.32.5-1.13,1.51-1.9,2.18-2.92.78-1.21.97-2.57,1-4,.06-2.21,1.38-4.16,1.21-6.42-.17-2.35-1.33-5.07-2.85-6.9-1.47-1.77-3.7-2.26-5.88-2.46-3-.28-6.09.06-9.08.14-2.31.06-4.66.36-6.84,1.08-4.39,1.44-7.97,4.45-9.82,8.72-1.22,2.85-1.94,5.99-2.51,9.03-.58,3.09-.96,6.23-1.07,9.36-.09,2.31-.13,4.58-.35,6.89-.22,2.35-.49,4.74-.31,7.09.14,2.1.6,3.98,1.93,5.65,1.16,1.44,2.65,2.6,4.14,3.69,2.87,2.12,6.84,4.75,10.59,4.14h0v.05Z"/>
      <path class="st8" d="M878.29,458.98c1.19.27,2.45-.36,2.79-1.58.31-1.14-.39-2.53-1.58-2.79-.27-.06-.52-.13-.77-.22.42.16-.17-.09-.22-.13-.22-.13-.44-.25-.66-.39-.06-.05-.63-.47-.36-.25-.82-.67-1.55-1.44-2.24-2.24-1.27-1.46-2.31-3.01-3.59-4.67-1.36-1.76-2.32-3.01-3.5-5.03-1.07-1.82-2.51-4.2-4.75-4.63-1.21-.24-2.45.33-2.79,1.58-.31,1.11.38,2.56,1.58,2.79.11.02.22.05.33.08-.27-.13-.3-.11-.06,0,.19.13.2.14.08.06-.13-.09-.11-.06.08.09.16.19.36.36.52.56.09.13.09.11,0,0,.09.13.19.25.27.38.52.77.97,1.58,1.43,2.38.6,1.02,1.27,1.96,1.99,2.89.38.47.75.96,1.14,1.43.55.69-.16-.22.17.22.14.19.28.38.42.56,2.49,3.37,5.33,7.91,9.74,8.89h0l-.02.02Z"/>
      <path class="st8" d="M833.01,393.53c.5,1.13,2.13,1.38,3.11.82,1.13-.66,1.32-1.99.82-3.11-1.88-4.16-3.22-8.55-4.14-13-.85-4.05-1.11-8.16-1.85-12.22-.74-4.05-2.13-7.97-2.67-12.06-1.05-8.12.16-16.36.17-24.52,0-2.92-4.53-2.92-4.53,0,0,4.78-.39,9.55-.52,14.34-.11,4.2-.03,8.44.69,12.59.74,4.22,2.24,8.3,2.74,12.56,1,8.52,2.62,16.74,6.18,24.59h0Z"/>
      <path class="st8" d="M880.21,192.15c.02,2.92,3.87,1.38,3.86-1.54-.02-2.53-.47-10.04-.55-12.56-.03-1.16-.06-2.35.16-3.48.2-.99.45-1.65,1.19-2.29,1.11-1,3.03-1.4,4.58-1.52.99-.08,1.98-.08,2.96-.06.93.03,1.46.05,2.21.22.44.09.86.22,1.29.38-.36-.14.47.25.63.35.14.08.27.17.39.27-.38-.28-.05-.05.03.05.11.13.72.85.41.39.19.27.33.53.49.82.06.13.19.49.02.02.06.17.13.33.17.5.08.3.14.58.2.88.08.42,0,.03,0-.05l.05.56c.03.74,0,1.47-.08,2.21.05-.45-.09.52-.11.66-.06.36-.14.72-.24,1.07-.2.8-.44,1.6-.71,2.38-.13.36-.25.72-.39,1.08-.08.22-.17.44-.25.64-.02.05-.17.39-.05.09-1.16,2.71-2.62,5.35-4.38,7.73,1.41.38,2.82.77,4.23,1.14-.11-1.57.66-2.73,1.43-4.05.91-1.57,1.58-3.2,1.57-5.03-.05-4-3.14-5.96-6.1-7.97-2.43-1.65-4.69,2.29-2.29,3.92,1.96,1.33,4.39,2.42,3.75,5-.3,1.22-1.21,2.32-1.79,3.47-.74,1.46-1.22,3.01-1.1,4.66.17,2.35,2.89,2.96,4.23,1.14,2.32-3.15,4.14-6.74,5.44-10.43,1.14-3.26,2.02-7.15.93-10.54-1.29-4-4.93-5.8-8.89-6.1-4.56-.35-10.27.17-13.03,4.34-1.41,2.15-1.52,4.99-1.44,7.48.08,2.53.47,5.03.5,7.56l.74,6.54-.06.06Z"/>
      <path class="st8" d="M885.73,180.72c.49.36,1.19.36,1.76.24.58-.13,1.05-.56,1.35-1.04.31-.49.38-1.21.24-1.74-.17-.61-.55-.99-1.04-1.35-.09-.06-.19-.14-.28-.2.58.41.22.17.09.08-.14-.11-.3-.24-.44-.36-.3-.25-.6-.49-.89-.74-.67-.55-1.36-1.1-2.12-1.54-.74-.42-1.58-.8-2.43-.96-1.16-.2-2.21-.17-3.37.05-1.11.22-1.77,1.44-1.63,2.49.14,1.1,1.1,1.96,2.23,1.96,1.82,0,3.61-.47,5.43-.24-.2-.03-.41-.05-.6-.08.27.03.52.08.77.16.06.02.13.05.19.06.28.09-.55-.25-.33-.14.09.05.19.09.27.16.27.16-.28-.22-.28-.24,0,.03.11.09.14.13s.06.08.09.11c.17.16-.36-.55-.24-.28.03.05.06.11.09.16.16.25-.2-.56-.14-.33.03.13.06.24.08.36-.03-.2-.05-.41-.08-.6,0,.08.02.14.02.22.09,1.27.97,2.21,2.27,2.27,1.16.05,2.35-1.08,2.27-2.27-.09-1.44-.72-2.67-1.96-3.45-.93-.6-2.1-.77-3.17-.82-1.62-.08-3.2.3-4.82.3.2,1.49.41,2.96.6,4.45.17-.03.33-.06.5-.08-.2.03-.41.05-.6.08.49-.06.97-.06,1.46,0-.2-.03-.41-.05-.6-.08.27.05.53.09.8.17.13.05.25.09.38.14.36.13-.58-.27-.08-.03.47.24.93.52,1.35.83.09.08.19.14.3.22-.63-.45-.17-.14-.03-.03.24.19.45.36.67.55.58.49,1.18.96,1.79,1.41h0l-.02-.02Z"/>
      <path class="st8" d="M879.41,177.52c1.22.17,2.43-.28,2.79-1.58.3-1.07-.38-2.62-1.58-2.79-2.42-.33-4.61-1.47-7.04-1.76-2.87-.35-5.77-.02-8.66-.03-4.08-.03-8.41-.99-12.28.74-3.51,1.55-4.55,5.54-5.14,9-.75,4.44-1.33,8.91-1.73,13.41-.44,4.93-.82,9.88-2.07,14.7-1.25,4.82-2.92,9.52-4.27,14.3-1.4,4.97-2.71,9.98-3.92,14.99-1.19,4.93-2.34,9.85-2.92,14.9-.47,4.03-.8,8.08-2.07,11.95-.5,1.54-1.11,3.01-1.94,4.39-.42.67-.72,1.1-1.27,1.65-.36.35-.86.69-1.18.78h1.21c.56.2-.03-.03-.16-.11.13.08.38.14.11.06-.2-.06-.28-.36-.05,0-.09-.14-.16-.27-.25-.41-.22-.39.09.41-.03-.08-.03-.11-.06-.22-.09-.33-.06-.2-.09-.42-.14-.63-.06-.38.03.56,0-.08-.09-1.8.06-3.14.36-4.71.67-3.45,1.79-6.79,2.87-10.13,1.49-4.6,2.27-9.4,3.12-14.15,1.02-5.65,2.46-11.12,3.95-16.66,1.51-5.65,2.92-11.31,4.49-16.92,1.55-5.54,3.62-10.99,4.58-16.66.75-4.39.27-9.43,2.29-13.5,1.74-3.5,5.35-4.86,9.03-5.24,4.03-.41,8.27-.31,12.31-.06,1.87.11,3.7.39,5.46,1.1,1.82.74,3.47,1.96,4.93,3.28,2.16,1.94,5.38-1.25,3.22-3.22-1.62-1.46-3.36-2.82-5.33-3.76-3.86-1.85-8.01-2.01-12.22-2.04-3.98-.03-8.03-.2-11.95.72-4.19.99-7.87,3.53-9.65,7.53-1.91,4.31-1.66,8.99-2.38,13.55-.89,5.54-2.89,10.85-4.41,16.23-1.57,5.55-2.98,11.14-4.45,16.72-1.46,5.47-2.98,10.89-4,16.47-.91,4.94-1.65,9.94-3.14,14.74-.85,2.71-1.77,5.4-2.48,8.14-.8,3.15-1.54,6.59-.96,9.83.24,1.32.82,2.64,1.84,3.56.67.6,1.63,1.19,2.56,1.19s1.85-.53,2.57-1.05c3.2-2.27,4.83-6.34,5.9-9.98,1.35-4.63,1.51-9.46,2.2-14.19.8-5.47,2.27-10.92,3.64-16.28,1.38-5.43,2.87-10.82,4.47-16.19.78-2.65,1.68-5.25,2.42-7.92.75-2.73,1.22-5.51,1.58-8.31.71-5.4.85-10.84,1.73-16.22.31-1.98.56-3.97.99-5.91.19-.88.42-1.84.78-2.62.3-.67.67-1.22,1.02-1.46,1.24-.88,3.15-.89,4.75-.88,1.98,0,3.94.25,5.91.28,2.71.05,5.43-.25,8.14-.03,2.27.17,4.34,1.36,6.6,1.68h0l-.05-.03Z"/>
      <path class="st6" d="M880.05,332.09c-2.15-23.57,1.57-47.26,5.27-70.64,3.39-21.39,6.78-42.79,10.15-64.18"/>
      <path class="st6" d="M845.65,321.04c-2.15-23.57,1.57-47.26,5.27-70.64,3.39-21.39,5.83-36.84,9.21-58.24"/>
      <path class="st6" d="M857.79,193.57c9.08-.82,19.12-.82,28.12.56,3.12.47,9.08,1.43,12.17,2.04"/>
      <path class="st3" d="M827.16,602.37c-4.25,6.78-9.22,13.08-14.81,18.81-1.43,1.46-2.93,2.92-3.76,4.78.14-8.27.3-16.53.44-24.81,6.45,0,13.43.3,19.87.3-.47-.09-.93-.17-1.4-.27-.02.28-.19.94-.35,1.18v.02Z"/>
    </g>
    <path class="st5" d="M139.2,1143.13c.35-19.7,4.66-39.32,12.61-57.34,62.75,4.97,125.59,9.94,188.53,10.27,41.42.22,83.18-1.54,124,5.46-2.05,21.71-7.14,43.12-15.03,63.43"/>
  </g>
  <polygon class="st1" points="336.72 477.25 249.04 448.77 194.85 523.35 220.51 558.67 249.04 597.93 336.72 569.45 336.72 477.25"/>
  <polygon class="st1" points="682.27 592.43 517.72 665.06 662.9 771.25 682.27 592.43"/>
  <ellipse class="st2" cx="866.8" cy="325.52" rx="9.5" ry="15.89"/>
  <circle class="st2" cx="859.89" cy="362.9" r="8.85"/>
  <ellipse class="st2" cx="816.07" cy="324.64" rx="6.13" ry="3.61"/>
  <ellipse class="st2" cx="816.07" cy="327.25" rx="6.13" ry="3.61"/>
</svg>
