<svg xmlns="http://www.w3.org/2000/svg" viewBox="0 0 880 560" role="img" aria-labelledby="title desc">
  <title id="title">Legal translation handoff illustration</title>
  <desc id="desc">Two hands shake above legal folders, translation pages, and a certification seal.</desc>
  <defs>
    <linearGradient id="bg" x1="0" x2="1" y1="0" y2="1"><stop stop-color="#f7f8fa"/><stop offset="1" stop-color="#e3e9f2"/></linearGradient>
    <linearGradient id="desk" x1="0" x2="1"><stop stop-color="#10233f"/><stop offset="1" stop-color="#243b5b"/></linearGradient>
  </defs>
  <rect width="880" height="560" fill="url(#bg)"/>
  <rect x="62" y="352" width="756" height="96" rx="12" fill="url(#desk)" opacity=".96"/>
  <rect x="110" y="96" width="280" height="344" rx="10" fill="#fff" stroke="#c9d3df" stroke-width="3"/>
  <rect x="490" y="118" width="250" height="304" rx="10" fill="#fff" stroke="#c9d3df" stroke-width="3"/>
  <rect x="138" y="130" width="176" height="18" fill="#123763" opacity=".9"/><rect x="138" y="170" width="214" height="12" fill="#111827" opacity=".18"/><rect x="138" y="200" width="198" height="12" fill="#111827" opacity=".18"/><rect x="138" y="230" width="224" height="12" fill="#111827" opacity=".18"/>
  <rect x="518" y="152" width="130" height="18" fill="#123763" opacity=".9"/><rect x="518" y="190" width="178" height="12" fill="#111827" opacity=".18"/><rect x="518" y="220" width="154" height="12" fill="#111827" opacity=".18"/><rect x="518" y="250" width="188" height="12" fill="#111827" opacity=".18"/>
  <circle cx="650" cy="346" r="48" fill="none" stroke="#8b2c2c" stroke-width="8"/><text x="650" y="337" text-anchor="middle" font-family="Georgia,serif" font-size="18" fill="#8b2c2c" font-weight="700">CERT</text><text x="650" y="360" text-anchor="middle" font-family="Arial,sans-serif" font-size="12" fill="#8b2c2c">COPY</text>
  <path d="M244 322c44-34 92-35 138 2l35 28-50 49-52-35c-27-18-48-16-70 4l-24 22-56-45 79-25z" fill="#d39a72"/>
  <path d="M510 320c-44-34-92-35-138 2l-35 28 50 49 52-35c27-18 48-16 70 4l24 22 56-45-79-25z" fill="#c6845d"/>
  <path d="M331 352l54 46 40-44-44-35c-17-13-36-12-50 3-10 10-10 21 0 30z" fill="#f1c3a6"/>
  <path d="M424 354l-40 44 44 35c17 13 36 12 50-3 10-10 10-21 0-30l-54-46z" fill="#e5ad8d"/>
  <rect x="70" y="374" width="740" height="110" rx="16" fill="#0b1727" opacity=".16"/>
</svg>
